<?xml version="1.0" encoding="UTF-8"?>
<svg id="Layer_1" data-name="Layer 1" xmlns="http://www.w3.org/2000/svg" xmlns:xlink="http://www.w3.org/1999/xlink" viewBox="0 0 1162 573">
  <defs>
    <style>
      .cls-1 {
        font-family: Roboto-Regular, Roboto;
        font-size: 42.49px;
      }

      .cls-2, .cls-3 {
        fill: #fff;
      }

      .cls-4 {
        letter-spacing: 0em;
      }

      .cls-5 {
        letter-spacing: -.02em;
      }

      .cls-6 {
        fill: #a3d0c9;
        opacity: .75;
      }

      .cls-6, .cls-7 {
        stroke: #b4cdca;
        stroke-width: 5px;
      }

      .cls-6, .cls-7, .cls-8 {
        stroke-miterlimit: 10;
      }

      .cls-9 {
        fill: #b4cdca;
      }

      .cls-10 {
        fill: url(#linear-gradient);
        opacity: .9;
      }

      .cls-7 {
        fill: none;
      }

      .cls-11 {
        letter-spacing: -.02em;
      }

      .cls-12 {
        opacity: .15;
      }

      .cls-13 {
        letter-spacing: -.06em;
      }

      .cls-14 {
        opacity: .32;
      }

      .cls-15 {
        letter-spacing: -.07em;
      }

      .cls-16 {
        font-family: Dapifer-Semibold, Dapifer;
        font-size: 118.04px;
        font-weight: 600;
      }

      .cls-3 {
        opacity: .25;
      }

      .cls-8 {
        fill: #cff;
        stroke: #4d4d4d;
      }
    </style>
    <linearGradient id="linear-gradient" x1="721.59" y1="81.94" x2="785.48" y2="292.41" gradientUnits="userSpaceOnUse">
      <stop offset="0" stop-color="#ecf2f0"/>
      <stop offset=".15" stop-color="#eaf1ef"/>
      <stop offset=".2" stop-color="#e5efee"/>
      <stop offset=".34" stop-color="#e3eeed"/>
      <stop offset=".39" stop-color="#dceae9"/>
      <stop offset=".4" stop-color="#d9e9e8"/>
      <stop offset=".55" stop-color="#d7e8e6"/>
      <stop offset=".6" stop-color="#d1e5e3"/>
      <stop offset=".78" stop-color="#d2e5e3"/>
      <stop offset=".8" stop-color="#d4e6e4"/>
      <stop offset=".92" stop-color="#d2e5e2"/>
      <stop offset=".96" stop-color="#cbe1de"/>
      <stop offset=".99" stop-color="#bfdcd7"/>
      <stop offset="1" stop-color="#b9d9d3"/>
    </linearGradient>
  </defs>
  <g>
    <g>
      <path class="cls-8" d="M737,474c-31.19,9.39-144,29-156,20s17.35-16,7.17-20-34.17,1.35-52.17,11.18-53.5,15.32-87.5,14.32-37-8-37-18,14-14,14-21-23-6-34-3-12,14-2,23,8,21-2,25-32,11-51,10-19-4-22-1,2,8,6,11,6,10-2,14-47,16-116,16-131-17-148-30-19-26-10-36,13-9,13-14-7-4-14-6-21-7-21-18,14-30,65-40,99-9,120-10,46-2,51-9-3-12-9-17-10-12,3-19,50-16,68-19,34-5,34-9-5-4-5-8,19-11,33-12,72,.39,83.5,2.2,16.5,3.8,16.5,7.8-7,8-10,9-6,4-3,5,24-2,31-4,29-6,46-6,41,7,41,17-16,21-23,25-9,9-5,12,63,6,84,4,98-7,128,19,17,59-34.5,74.5Z"/>
      <path class="cls-8" d="M212,391c-7,2-28,3-31-4s12-10,20-11,24,1,26,6-8,7-15,9Z"/>
      <path class="cls-8" d="M115,365c14-2,37,0,45,4s12,12-1,18-45,14-66,7-8-18-2-21,10.79-6.11,24-8Z"/>
      <path class="cls-8" d="M300,327c-5.04-.78-17-4-17-8s12-8,23-6,19,6,17,10-10,6-23,4Z"/>
      <path class="cls-8" d="M575,306c7.03,.78,13,5,11,7s-11,5-19,3-10.26-5.67-7.13-7.83,6.13-3.17,15.13-2.17Z"/>
      <path class="cls-8" d="M528,536c-13.6,3.89-40,4-52-2s-10-12-1-19,28-11,40-11,29,2,36,6c7,4,19,14-23,26Z"/>
    </g>
    <path class="cls-2" d="M60,484s-23,15-10,29,93,46,214,35c0,0-152.7,5-201.35-42,0,0-8.65-4-2.65-22Z"/>
    <path class="cls-2" d="M420,491s18,8,53,5,46-6,70-18c0,0-32,11-70,14s-53-1-53-1Z"/>
    <path class="cls-2" d="M586,489s24,5,93-7c69-12,85-26,85-26,0,0-42.39,15-90.7,22s-87.3,11-87.3,11Z"/>
    <path class="cls-2" d="M320,510s26.74,8,63.87-6c0,0-33.87,7-63.87,6Z"/>
    <path class="cls-2" d="M554,520s-17,15-43,15c-26,0-38.24-7.5-38.24-7.5,0,0,40.24,12.5,81.24-7.5Z"/>
    <path class="cls-2" d="M165,377s-13,13-35,16-35,0-44-5c0,0,43,10,79-11Z"/>
    <path class="cls-2" d="M225,383s-7,5-18,7-22-2-22-2c0,0,23,4,40-5Z"/>
    <path class="cls-2" d="M321,322s-3,4-12,4-17-3-17-3c0,0,20,4,29-1Z"/>
  </g>
  <g>
    <path class="cls-14" d="M1053.93,180.03c60.1,9.74,111.96,63.46,73.37,93.86-269.17,68.97-356.16,68.36-429.2,76.13-73.04,7.77-130.52,16.05-134.97,28.15-2.42,6.56-28.54,16.2-55.21,2.99-26.67-13.21-65.74-54.08-41-67.97,24.74-13.9,29.41-7.26,43.15-10.06,13.74-2.8,87.07-23.13,149.55-51.7,62.48-28.57,272.74-78.95,394.31-71.39Z"/>
    <g>
      <g>
        <path class="cls-10" d="M1017,73c57.5,22.5,104.5,118.5,65.48,166-263.98,89.5-347.98,79.72-418.98,85.5-71,5.78-127,14-132,34-2.71,10.85-28.5,24.5-53.5-.5s-60.39-98-35.7-119,28.83-9.32,42.26-12.66,85.43-30.34,147.43-72.34,268-106,385-81Z"/>
        <path class="cls-7" d="M1017,73c57.5,22.5,104.5,118.5,65.48,166-263.98,89.5-347.98,79.72-418.98,85.5-71,5.78-127,14-132,34-2.71,10.85-28.5,24.5-53.5-.5s-60.39-98-35.7-119,28.83-9.32,42.26-12.66,85.43-30.34,147.43-72.34,268-106,385-81Z"/>
        <path class="cls-6" d="M496.5,292.5c16.15,27.98,29.18,54.51,11,65s-37.36-21.33-48.91-42.5c-10.09-18.5-23.27-53.01-5.09-63.5s26.85,13.02,43,41Z"/>
        <path class="cls-9" d="M474.8,224.26c29.22,16.77,48.14,48.08,55.01,80.48,2.32,10.78,3.49,21.77,3.69,32.75-.61-10.97-2.2-21.87-4.9-32.46-5.31-21.09-15.61-41.06-30.62-56.8-7.4-7.66-15.8-14.65-25.32-19.45,0,0,2.15-4.52,2.15-4.52h0Z"/>
      </g>
      <path class="cls-3" d="M470,233s27,11,44,44c0,0-36-45-64-37,0,0,7-7,20-7Z"/>
      <path class="cls-3" d="M881,80s91.7-11,133.35,0c0,0,28.65,14,40.65,30,0,0-30-21-45-24,0,0-53-8-129-6Z"/>
      <path class="cls-3" d="M494,231s86.09-31.47,117.04-51.73,84.96-52.27,136.96-66.27c0,0-89,46.78-127,75.39-38,28.61-127,42.61-127,42.61Z"/>
    </g>
  </g>
  <text class="cls-16" transform="translate(28.52 113.39)"><tspan class="cls-11" x="0" y="0">H</tspan><tspan class="cls-5" x="96.08" y="0">o</tspan><tspan class="cls-15" x="159.24" y="0">v</tspan><tspan class="cls-4" x="216.13" y="0">...</tspan></text>
  <text class="cls-1" transform="translate(28.52 171.23)"><tspan x="0" y="0">Vi kunne ikke finde </tspan><tspan x="0" y="50.99">siden du ledte efte</tspan><tspan class="cls-13" x="347.94" y="50.99">r</tspan><tspan x="359.77" y="50.99">.</tspan></text>
  <g class="cls-12">
    <g>
      <path d="M300.99,441c.13,.5,.13,1.01,0,1.53-.12,.52-.34,1-.64,1.45-.31,.45-.69,.85-1.14,1.18-.45,.33-.95,.57-1.51,.71-1.12,.28-2.1,.31-2.94,.08-1.48-.16-3.12-.15-4.93,.02s-3.59,.48-5.36,.93l-2.03,.51c0,1.41,.1,2.81,.28,4.2,.18,1.4,.39,2.69,.63,3.88,.13,.63,.26,1.21,.4,1.76,.14,.55,.27,1.08,.41,1.61,.36,1.44,.81,3.02,1.34,4.74,.75,.5,1.44,1.06,2.07,1.69,.63,.63,.98,1.09,1.05,1.38,.18,.71,.17,1.44-.03,2.22-.2,.77-.51,1.49-.94,2.16-.43,.67-.93,1.25-1.51,1.74-.58,.49-1.18,.81-1.8,.97-.35,.09-.86,.18-1.51,.26-.65,.09-1.34,.09-2.06,.03-.72-.07-1.43-.25-2.13-.54s-1.28-.79-1.74-1.49c-.8-1.3-1.36-2.6-1.69-3.9-.13-.53-.3-1.3-.48-2.3-.19-1-.38-2.05-.56-3.15-.18-1.1-.36-2.13-.53-3.11-.17-.98-.3-1.7-.39-2.18-.22-1.14-.42-2.29-.59-3.47s-.3-2.35-.37-3.53c-3.42,.86-6.33,1.74-8.74,2.63-2.41,.89-4.46,1.78-6.14,2.68-1.96,1.06-3.86,1.99-5.72,2.78s-3.63,1.41-5.34,1.84c-.5,.13-1.06,.15-1.68,.07s-1.26-.23-1.92-.45c-.67-.22-1.33-.5-1.98-.84s-1.24-.71-1.78-1.1c.01-.57,.18-1.3,.51-2.2,.32-.9,.76-1.91,1.3-3.03,.55-1.12,1.18-2.33,1.91-3.61s1.49-2.56,2.3-3.85c.8-1.29,1.62-2.55,2.45-3.79,.83-1.24,1.63-2.39,2.4-3.43,2.38-3.23,4.43-6.02,6.14-8.36,1.71-2.34,3.17-4.35,4.36-6.01,1.19-1.66,2.18-3.02,2.94-4.08,.77-1.06,1.39-1.93,1.88-2.61,.48-.69,.88-1.23,1.19-1.62,.31-.39,.61-.75,.9-1.07,.44-.49,1.02-1.19,1.73-2.1,.71-.92,1.46-1.83,2.24-2.75s1.55-1.74,2.3-2.46c.74-.72,1.36-1.14,1.87-1.27,1.56-.39,2.88-.43,3.95-.1,1.07,.32,1.73,.97,1.97,1.95,0,.35-.01,.88-.02,1.6,0,.72-.02,1.52-.05,2.39-.03,.87-.05,1.78-.07,2.72-.01,.94-.03,1.79-.06,2.55-.17,2.33-.24,4.53-.24,6.6s.06,4,.17,5.81c.11,1.81,.25,3.49,.4,5.05,.16,1.56,.28,3,.36,4.33,.91-.23,2.07-.47,3.49-.72,1.41-.25,2.99-.59,4.72-1.03,2-.51,3.64-.77,4.92-.8,1.28-.02,2.32,.14,3.13,.5,.81,.36,1.43,.92,1.85,1.67s.77,1.66,1.04,2.72Zm-29.56-18.4c-.73,.97-1.52,1.97-2.37,3.02-.85,1.04-1.68,2.09-2.5,3.14-.82,1.05-1.59,2.09-2.32,3.1-.73,1.01-1.35,1.99-1.87,2.94-.4,.76-1.01,1.73-1.83,2.91s-1.71,2.43-2.67,3.75c-.97,1.33-1.94,2.64-2.93,3.94-.99,1.3-1.87,2.42-2.63,3.37,.77-.29,1.71-.66,2.8-1.11,1.09-.45,2.27-.92,3.52-1.43,1.25-.51,2.53-1.03,3.83-1.58,1.3-.55,2.55-1.06,3.75-1.53,1.2-.47,2.28-.9,3.25-1.29,.97-.38,1.74-.67,2.32-.84-.05-.58-.09-1.16-.11-1.74-.02-.57-.03-1.21-.04-1.92,0-.7,0-1.49-.01-2.37,0-.88,0-1.89-.02-3.05l-.18-9.31Z"/>
      <path d="M364.38,413.68c.97,3.83,.66,8.09-.91,12.78-.74,2.16-1.72,4.35-2.93,6.57s-2.63,4.41-4.24,6.57c-1.55,2.05-3.21,4.02-4.97,5.91s-3.64,3.66-5.64,5.32c-1.94,1.62-3.85,3.01-5.72,4.17-1.87,1.16-3.7,2.11-5.49,2.84-2.13,.88-4,1.61-5.61,2.19-1.61,.58-2.99,1.01-4.14,1.3-2.59,.65-4.99,.77-7.2,.34s-4.18-1.27-5.9-2.53-3.2-2.85-4.4-4.79-2.11-4.08-2.7-6.44c-.92-3.65-1.2-7.85-.82-12.58,.19-2.24,.54-4.5,1.04-6.77,.51-2.27,1.18-4.55,2.01-6.83,.77-2.17,1.68-4.2,2.72-6.09,1.04-1.89,2.16-3.63,3.36-5.22,1.34-1.75,2.8-3.45,4.36-5.09,1.56-1.65,3.21-3.19,4.94-4.63,1.81-1.52,3.59-2.76,5.34-3.72,1.75-.96,3.6-1.68,5.54-2.17,1.47-.37,3.05-.56,4.72-.58,1.67-.02,3.37,.1,5.1,.36,1.44,.23,2.89,.59,4.36,1.06s2.82,.97,4.07,1.49c1.24,.52,2.31,1.02,3.2,1.5,.89,.48,1.49,.84,1.8,1.07,1.93,1.46,3.57,3.35,4.91,5.67,1.34,2.33,2.41,5.09,3.22,8.31Zm-10.23,3.99c-.18-.71-.46-1.53-.86-2.46-.39-.93-.82-1.84-1.29-2.71-.47-.87-.93-1.65-1.39-2.35-.46-.7-.86-1.16-1.2-1.39-.39-.31-.88-.66-1.47-1.06-.59-.4-1.21-.8-1.85-1.2-.65-.4-1.3-.79-1.94-1.16-.64-.37-1.23-.68-1.76-.92-.67,.7-1.7,1.23-3.08,1.58-.24,.06-.56,.04-.98-.06-.42-.1-.85-.22-1.32-.37-.46-.15-.9-.27-1.32-.37s-.73-.12-.93-.07c-1.44,.36-2.69,.8-3.74,1.3s-2.01,1.11-2.88,1.83c-.87,.72-1.7,1.59-2.49,2.6-.79,1.01-1.66,2.2-2.6,3.57-3.03,4.37-5.34,9.13-6.92,14.3-1.53,4.87-1.73,9.55-.59,14.06,.2,.8,.46,1.61,.78,2.44s.67,1.58,1.07,2.27c.39,.68,.79,1.27,1.2,1.76,.41,.49,.82,.81,1.23,.96,2.52,.81,5.11,.87,7.76,.21,1.38-.35,2.84-.99,4.36-1.92s3.03-2.02,4.54-3.26,2.94-2.56,4.31-3.96c1.37-1.4,2.6-2.72,3.7-3.97,.56-.64,1.21-1.44,1.96-2.4,.75-.96,1.51-2.02,2.3-3.19,.78-1.17,1.55-2.39,2.3-3.66,.74-1.27,1.38-2.53,1.92-3.77s.92-2.44,1.16-3.58c.24-1.14,.25-2.16,.03-3.04Z"/>
      <path d="M433.23,407.65c.13,.5,.13,1.01,0,1.52-.12,.52-.34,1-.64,1.46-.31,.45-.69,.85-1.14,1.18-.45,.33-.95,.57-1.51,.71-1.12,.28-2.1,.31-2.94,.08-1.48-.16-3.12-.15-4.93,.02s-3.59,.48-5.36,.93l-2.03,.51c.01,1.41,.11,2.81,.28,4.21,.18,1.4,.39,2.69,.63,3.88,.13,.63,.26,1.21,.4,1.76,.14,.54,.27,1.08,.41,1.61,.36,1.44,.81,3.02,1.34,4.74,.75,.5,1.44,1.06,2.07,1.69,.63,.63,.98,1.08,1.05,1.38,.18,.71,.17,1.44-.03,2.22-.2,.77-.51,1.49-.94,2.16-.43,.67-.93,1.25-1.51,1.74s-1.18,.82-1.8,.97c-.35,.09-.86,.18-1.51,.26-.65,.09-1.34,.1-2.06,.03-.72-.07-1.43-.25-2.13-.54-.7-.29-1.28-.79-1.74-1.49-.8-1.3-1.36-2.6-1.69-3.9-.13-.53-.3-1.3-.49-2.3-.19-1-.38-2.05-.56-3.15-.18-1.1-.36-2.14-.53-3.11-.17-.98-.3-1.7-.39-2.18-.22-1.13-.42-2.29-.59-3.47s-.3-2.35-.37-3.53c-3.42,.86-6.33,1.74-8.74,2.63-2.41,.89-4.46,1.78-6.14,2.68-1.96,1.06-3.86,1.99-5.72,2.78-1.85,.8-3.63,1.41-5.34,1.84-.5,.13-1.06,.15-1.68,.07-.62-.08-1.26-.23-1.92-.45-.67-.22-1.33-.5-1.98-.84-.65-.34-1.24-.71-1.78-1.1,.01-.57,.18-1.3,.5-2.2,.32-.9,.76-1.91,1.3-3.03,.55-1.13,1.18-2.33,1.91-3.61,.73-1.28,1.49-2.56,2.3-3.85,.8-1.29,1.62-2.55,2.45-3.79s1.63-2.39,2.4-3.43c2.38-3.23,4.43-6.02,6.14-8.37,1.71-2.34,3.16-4.35,4.36-6.01,1.19-1.66,2.18-3.02,2.94-4.08,.77-1.06,1.39-1.93,1.88-2.61s.88-1.23,1.19-1.62,.61-.75,.9-1.07c.44-.49,1.02-1.19,1.73-2.1,.71-.92,1.46-1.83,2.24-2.75,.79-.92,1.55-1.74,2.29-2.46,.74-.72,1.36-1.14,1.87-1.27,1.56-.39,2.88-.43,3.95-.1,1.07,.33,1.73,.97,1.97,1.95,0,.35-.01,.88-.02,1.6,0,.72-.02,1.52-.06,2.39-.03,.87-.05,1.78-.07,2.72-.01,.94-.03,1.8-.06,2.55-.16,2.33-.24,4.53-.24,6.6,0,2.07,.06,4,.17,5.81,.11,1.81,.25,3.49,.4,5.05,.16,1.56,.28,3,.36,4.33,.91-.23,2.08-.47,3.49-.71,1.41-.25,2.98-.59,4.72-1.03,2-.5,3.64-.77,4.92-.8,1.28-.02,2.32,.14,3.13,.5,.81,.36,1.43,.92,1.86,1.67,.42,.75,.77,1.66,1.04,2.72Zm-29.56-18.4c-.73,.97-1.52,1.98-2.36,3.02-.85,1.04-1.68,2.09-2.5,3.15s-1.59,2.09-2.32,3.1c-.73,1.02-1.35,2-1.87,2.94-.4,.76-1.01,1.73-1.83,2.91-.82,1.18-1.71,2.43-2.67,3.75-.97,1.33-1.94,2.64-2.93,3.94-.99,1.3-1.87,2.42-2.63,3.37,.77-.29,1.71-.66,2.8-1.11,1.09-.45,2.27-.92,3.52-1.43,1.25-.51,2.53-1.03,3.83-1.58,1.3-.55,2.55-1.06,3.75-1.53,1.2-.47,2.28-.9,3.25-1.29,.97-.38,1.74-.67,2.33-.85-.05-.58-.09-1.16-.11-1.73s-.03-1.21-.04-1.92c0-.7,0-1.49-.01-2.37,0-.88,0-1.89-.02-3.05l-.19-9.31Z"/>
    </g>
  </g>
</svg>