<?xml version="1.0" encoding="UTF-8"?>
<svg xmlns="http://www.w3.org/2000/svg" viewBox="0 0 1487.1 382.3">
  <defs>
    <style>
      .cls-1 {
        fill: #b7f591;
      }

      .cls-2 {
        fill: #799754;
      }

      .cls-3 {
        fill: #fff;
      }

      .cls-4 {
        fill: #040402;
      }

      .cls-5 {
        letter-spacing: -.01em;
      }

      .cls-6 {
        fill: #f5c856;
      }

      .cls-7 {
        fill: #6a002c;
      }

      .cls-8 {
        isolation: isolate;
      }

      .cls-9 {
        fill: #91b865;
      }

      .cls-10 {
        mix-blend-mode: soft-light;
      }

      .cls-11 {
        fill: #ff9a98;
      }

      .cls-12 {
        letter-spacing: -.01em;
      }

      .cls-13 {
        letter-spacing: 0em;
      }

      .cls-14 {
        font-family: SofiaProCondensed-SemiBold, 'Sofia Pro Condensed';
        font-size: 186.82px;
        font-weight: 600;
      }

      .cls-15 {
        fill: #b3b3b3;
      }

      .cls-16 {
        opacity: .25;
      }
    </style>
  </defs>
  <g class="cls-8">
    <g id="Layer_3" data-name="Layer 3">
      <g>
        <g id="BACKDROP">
          <g id="BACKDROP-2" data-name="BACKDROP">
            <path class="cls-9" d="M193.91,347.28c-2.84,0-5.62-.08-8.29-.22-82.54-4.32-147.21-72.53-147.21-155.28S108.17,36.28,193.91,36.28c7.08,0,14.21,.48,21.19,1.44l3.33,.46-.88,3.43c-.11,1.64-.58,22.35,40.19,39.25,6.81,2.33,12.93,3.46,18.7,3.46,8.85,0,15.88-2.77,21.58-5.47l1.87-.88,1.49,1.43c30.98,29.63,48.04,69.55,48.04,112.39,0,2.64-.07,5.35-.2,8.07-4.23,82.67-72.44,147.43-155.3,147.43Z"/>
            <path class="cls-3" d="M193.92,39.28c7.05,0,13.98,.48,20.78,1.41l-.1,.39s-3.39,23.76,42.09,42.59c7.55,2.59,14,3.65,19.76,3.65,8.76,0,15.91-2.46,22.86-5.76,29.03,27.77,47.11,66.88,47.11,110.22,0,2.66-.07,5.3-.2,7.92-4.12,80.54-70.74,144.58-152.3,144.58-2.72,0-5.43-.07-8.12-.22-80.44-4.21-144.38-70.78-144.38-152.28S109.7,39.28,193.92,39.28m0-6c-42.34,0-82.14,16.49-112.08,46.42-29.94,29.94-46.42,69.74-46.42,112.08,0,84.35,65.92,153.87,150.07,158.27,2.71,.15,5.55,.23,8.43,.23,40.9,0,79.73-15.54,109.33-43.74,29.5-28.11,46.89-65.94,48.96-106.53,.14-2.78,.21-5.55,.21-8.23,0-22.02-4.43-43.33-13.17-63.35-8.44-19.33-20.48-36.56-35.79-51.21l-2.99-2.86-3.73,1.77c-5.4,2.56-12.03,5.18-20.29,5.18-5.41,0-11.18-1.07-17.64-3.27-21.05-8.74-30.35-18.3-34.45-24.79-3.69-5.84-3.85-10.11-3.82-11.2l1.64-6.4-6.67-.91c-7.11-.97-14.37-1.47-21.59-1.47h0Z"/>
          </g>
          <path class="cls-2" d="M318.2,280.18c-27.65,38.8-73.01,64.1-124.28,64.1-2.72,0-5.43-.07-8.12-.22-80.44-4.21-144.38-70.78-144.38-152.28,0-28.84,8.01-55.81,21.92-78.81-.61,5.86-.92,11.8-.92,17.81,0,91.65,71.91,166.52,162.37,171.25,3.02,.17,6.07,.25,9.13,.25,30.63,0,59.39-8.03,84.28-22.1Z"/>
        </g>
        <g id="LEAF">
          <path class="cls-1" d="M193.91,367.28c-96.77,0-175.5-78.73-175.5-175.5S97.14,16.28,193.91,16.28c6.82,0,13.68,.4,20.46,1.18l13.87-1.18c9.93-.84,19.53-1.27,28.54-1.27,48.06,0,74.12,12.19,87.51,22.42,14.79,11.29,17.92,22.61,18.05,23.08l.78,2.96-3.02-.47c-5.02-.78-9.87-1.18-14.4-1.18-13.9,0-23.56,3.71-30.42,6.95-3.46,1.62-6.71,3.39-9.86,5.11-1.71,.93-3.39,1.85-5.08,2.73-1.87,.98-3.45,1.75-4.97,2.42-7.08,3.22-13.21,4.65-19.89,4.65-5.53,0-11.31-1.02-17.66-3.11l-.12-.04c-36.16-14.54-38.74-33.44-38.67-38.88,.01-.81,.08-1.29,.1-1.38l.02-.11,.49-1.77c-1.3-.22-2.62-.42-3.94-.6-7.16-1-14.48-1.51-21.77-1.51-85.74,0-155.5,69.76-155.5,155.5s69.76,155.5,155.5,155.5,155.5-69.76,155.5-155.5c0-42.17-16.61-81.65-46.76-111.16l-1.97-1.93,2.45-1.27c1.14-.59,2.28-1.19,3.44-1.8,3.7-1.95,7.52-3.97,11.67-5.82l1.28-.57,.97,1.01c31.54,32.84,48.92,76,48.92,121.54,0,96.77-78.73,175.5-175.5,175.5Z"/>
          <path class="cls-3" d="M256.78,17.02c91.96,0,103.62,44.01,103.62,44.01-5.35-.83-10.23-1.2-14.7-1.2-13.18,0-22.9,3.19-31.28,7.14-5.38,2.52-10.19,5.36-15.01,7.87-1.61,.84-3.22,1.64-4.86,2.37-5.79,2.63-11.84,4.48-19.07,4.48-5.01,0-10.58-.89-17.03-3.01-35.37-14.22-37.48-32.41-37.42-37,.01-.71,.07-1.09,.07-1.09l1.04-3.79c-2.04-.37-4.1-.7-6.17-.99-7.21-1.01-14.57-1.53-22.05-1.53-86.98,0-157.5,70.52-157.5,157.5s70.52,157.5,157.5,157.5,157.5-70.52,157.5-157.5c0-44.11-18.14-83.99-47.36-112.59,4.78-2.48,9.63-5.18,15-7.57,29.95,31.18,48.36,73.52,48.36,120.16,0,95.82-77.68,173.5-173.5,173.5S20.42,287.6,20.42,191.78,98.1,18.28,193.92,18.28c8.87,0,17.59,.67,26.1,1.95,2.82,.43,5.61,.92,8.38,1.47,29.02,4.58,50.02,6.58,100.02,23.58-47-20-67.01-23-100-27,10.21-.87,19.66-1.26,28.37-1.26m0-4c-9.06,0-18.72,.43-28.71,1.28l-13.67,1.16c-6.8-.78-13.66-1.17-20.49-1.17-23.96,0-47.21,4.69-69.09,13.95-21.14,8.94-40.12,21.74-56.42,38.04s-29.1,35.28-38.04,56.42c-9.26,21.89-13.95,45.13-13.95,69.09s4.69,47.21,13.95,69.09c8.94,21.14,21.74,40.12,38.04,56.42s35.28,29.1,56.42,38.04c21.89,9.26,45.13,13.95,69.09,13.95s47.21-4.69,69.09-13.95c21.14-8.94,40.12-21.74,56.42-38.04s29.1-35.28,38.04-56.42c9.26-21.89,13.95-45.13,13.95-69.09,0-46.06-17.57-89.72-49.48-122.93l-.52-.55c6.13-2.39,14.02-4.47,24.29-4.47,4.43,0,9.17,.39,14.09,1.15l6.05,.94-1.57-5.92c-.13-.5-3.44-12.46-18.77-24.16-8.76-6.69-19.73-12-32.61-15.79-15.88-4.67-34.76-7.04-56.11-7.04h0Zm-62.87,332.26c-84.64,0-153.5-68.86-153.5-153.5S109.28,38.28,193.92,38.28c7.2,0,14.43,.5,21.5,1.49,.58,.08,1.15,.16,1.73,.25-.03,.21-.1,.77-.11,1.6-.08,5.77,2.58,25.75,39.93,40.77l.12,.05,.12,.04c6.56,2.16,12.54,3.21,18.29,3.21,6.97,0,13.37-1.49,20.73-4.84,.82-.37,1.67-.76,2.59-1.21l2.46,2.41c29.77,29.13,46.16,68.1,46.16,109.73,0,84.64-68.86,153.5-153.5,153.5h0Z"/>
        </g>
        <g id="COW">
          <g id="OUTLINE">
            <path class="cls-3" d="M176.41,35.28c.96,0,2.38,1.53,4.27,5.3,8.28,16.55,26.9,11.9,49.15,34.66,11.65,11.92,8.88,25.82,3.6,36.36,9.74-7.87,30.9-10.43,38.56-10.43,.71,0,1.3,.02,1.75,.06,.86,.08,1.7,.1,2.5,.1,.95,0,1.86-.03,2.7-.03,3.3,0,5.69,.45,6.44,4.87,1.1,6.51-5.75,30.21-18.62,39.11-6.7,4.63-16.01,5.74-23.39,5.74-4.92,0-8.98-.49-10.85-.76,.42,4.64,.35,8.23,.29,9.67h0c.13,.44,8.72,28.5,29.09,36.39,16.7,6.48,22.26,7.08,23.75,7.08,.34,0,.47-.03,.47-.03,0,0,18.49-4.22,33.88-4.22,1.51,0,2.99,.04,4.42,.13,6.15,.38,11.53,.5,15.83,.5,2.33,0,4.34-.03,5.97-.08-2.61,51.01-30.29,95.4-70.96,121.1-20.31,12.83-43.86,21-69.15,22.99-4.02,.33-8.09,.49-12.19,.49-2.72,0-5.43-.07-8.12-.22-4.57-13.51-15.17-51.26-3.63-83.23-.73-1.33-1.38-2.44-1.91-3.31-10.25,2.97-20.83,4.36-30.06,4.36-8.29,0-15.5-1.12-20.42-3.23-.7-.29-2.33-1.73-2.48-2.48-.34-1.59-1.24-4.96-1.24-4.96,0,0-.93-.16-2.25-.41-3.3-.65-6.12-2.84-7.47-5.92,0-.01-.61-1.43-.86-2.04-.01-.03-.03-.09-.07-.18-.24-.59-.47-1.19-.68-1.8-.17-.42-.33-.84-.46-1.27-.21-.59-.43-1.2-.61-1.81-.18-.49-.32-.99-.47-1.49-.05-.16-.1-.32-.15-.48-.2-.67-.4-1.34-.57-2-.16-.56-.31-1.13-.45-1.69-.12-.43-.24-.87-.33-1.3-.13-.52-.25-1.03-.36-1.54-.15-.63-.29-1.28-.43-1.9-.24-1.23-.48-2.41-.68-3.56-1.53-8.6-1.69-15-1.69-15-7.07-13.3-11.6-22.42-14.39-29.59h-6.93s-14.78,9.05-28.59,9.05c-1.53,0-3.05-.11-4.54-.36-14.89-2.48-30.31-18.75-31.91-24.27-1.6-5.51,3.37-5.51,8.33-8,3.77-1.88,19.52-6.8,32.13-6.8,.71,0,1.41,.02,2.09,.05-6.13-6.15-10.21-14.63-7.74-26.07,6.7-31.11,24.94-37.09,23.13-55.51-.48-4.93,.14-6.89,1.26-6.89,3.07,0,9.88,14.71,8.06,23.64-2.9,14.29-14.57,38.81,8.64,49.5,1.37-1.57,2.92-3.1,4.66-4.6,7.61-6.51,18.91-12.37,34.35-18.04,11.26-4.14,22.9-5.52,33.42-5.52,7.38,0,14.21,.68,19.97,1.56,3.25,.5,6.16,1.06,8.63,1.6,17.3-22.71-6.95-37.93-17.38-48.85-6.64-6.95-8.58-24.44-5.31-24.44m0-4c-2.07,0-3.84,1.25-4.73,3.35-2.26,5.29,.36,20.74,7.15,27.85,1.71,1.79,3.72,3.64,5.85,5.6,13.22,12.18,21.94,22.02,12.69,36.04-2.06-.41-4.16-.78-6.28-1.1-6.97-1.06-13.9-1.6-20.58-1.6-12.69,0-24.4,1.94-34.8,5.76-16.09,5.91-27.72,12.04-35.57,18.75-1.02,.88-2,1.78-2.91,2.69-12.38-7.28-10.12-20.08-5.84-35.88,.76-2.8,1.47-5.44,1.97-7.88,1.73-8.52-2.77-20.56-6.75-25.44-.61-.74-2.45-3-5.23-3-1.4,0-2.69,.58-3.65,1.63-1.61,1.77-2.08,4.66-1.59,9.65,.76,7.77-2.79,13.05-7.7,20.36-5.28,7.84-11.84,17.6-15.36,33.92-1.82,8.41-.56,16.28,3.62,23.16-12.01,1.14-24.57,5.22-27.98,6.92-1,.5-2.06,.91-3.08,1.3-3.34,1.28-9.55,3.65-7.3,11.39,1.11,3.83,5.9,9.79,12.21,15.2,4.38,3.75,13.18,10.29,22.88,11.9,1.65,.27,3.4,.41,5.2,.41,12.79,0,25.96-6.94,29.67-9.05h3.15c2.64,6.32,6.61,14.37,13.13,26.66,.11,2.16,.48,7.69,1.71,14.63,.16,.91,.34,1.85,.53,2.81l.16,.81v.06s.02,.06,.02,.06l.13,.58c.1,.44,.2,.89,.3,1.33,.11,.52,.23,1.03,.36,1.56,.11,.5,.24,.98,.36,1.42,.14,.57,.3,1.15,.46,1.72,.19,.72,.4,1.42,.6,2.1v.02s.01,.02,.01,.02l.15,.48,.07,.22c.12,.4,.25,.85,.42,1.33,.19,.63,.41,1.24,.6,1.78v.04c.18,.54,.37,1.03,.52,1.42,.21,.6,.45,1.22,.72,1.9v.02s.02,.04,.02,.04l.05,.13c.13,.33,.37,.88,.56,1.33v.03l.34,.77c1.83,4.18,5.62,7.24,10.15,8.2,.21,.85,.43,1.73,.56,2.32,.58,2.75,3.81,4.9,4.86,5.34,5.38,2.3,12.98,3.53,21.95,3.53s18.26-1.21,27.2-3.45c-10.23,32.14-.27,68.48,4.61,82.91l.87,2.56,2.7,.15c2.69,.15,5.5,.23,8.34,.23,4.24,0,8.45-.17,12.52-.5,25.11-1.98,49.65-10.14,70.96-23.59,43.01-27.18,70.23-73.63,72.82-124.28l.22-4.32-4.33,.12c-1.87,.05-3.84,.08-5.86,.08-5.08,0-10.33-.17-15.58-.49-1.46-.09-3.03-.14-4.67-.14-14.73,0-31.82,3.67-34.45,4.25-.95-.04-6.09-.56-22.2-6.81-16.89-6.54-25.18-29.25-26.52-33.22,.03-1.03,.04-2.62-.02-4.62,1.9,.15,4.13,.27,6.57,.27,10.83,0,19.47-2.17,25.66-6.45,14.26-9.86,21.6-35.31,20.29-43.07-1.39-8.2-7.92-8.2-10.38-8.2-.43,0-.88,0-1.34,.01-.44,0-.9,.02-1.37,.02-.83,0-1.51-.03-2.14-.08-.58-.05-1.29-.08-2.11-.08-4.35,0-19.11,1.11-31.05,5.78,2.84-11.59,.07-22-8.24-30.5-11.67-11.94-22.42-16.7-31.07-20.53-8.05-3.57-13.87-6.14-17.37-13.13-1.95-3.9-4.25-7.51-7.85-7.51h0Z"/>
          </g>
          <path class="cls-6" d="M346.22,199.7c-2.61,51.01-30.29,95.4-70.96,121.1-20.31,12.83-43.86,21-69.15,22.99-4.02,.33-8.09,.49-12.19,.49-2.72,0-5.43-.07-8.12-.22-4.57-13.51-15.17-51.26-3.63-83.23,.72-2,1.53-3.98,2.43-5.92l15.53-9.8,4.27-4.41,12.02-12.42,4.69-12.73,2.08-5.66v-41.32l9.62-8.64s8.56,28.44,29.09,36.39c20.52,7.96,24.22,7.05,24.22,7.05,0,0,22.3-5.09,38.3-4.09,9.48,.59,17.14,.55,21.8,.42Z"/>
          <path class="cls-3" d="M275.26,320.8c-20.31,12.83-43.86,21-69.15,22.99-4.75-5.59-14.9-19.95-12.19-37.64,2.56-16.74-6.63-36.13-11.75-45.32-.73-1.33-1.38-2.44-1.9-3.3h0c15.33-4.45,29.93-12.41,38.19-24.53,.48-2.38,1.14-4.62,1.92-6.76,1.44-3.91,2.85-7.14,4.2-10.01,2.66,.55,6.34,1.37,10.34,2.45,10.01,2.7,21.98,6.99,24.68,12.59,4.83,10.01,11.83,23.01,7.83,47.01-2.05,12.27,3.39,38.09,7.84,42.52Z"/>
          <path class="cls-6" d="M220.37,226.24c-.78,2.14-1.44,4.38-1.92,6.76-18.74,27.5-70.08,33.6-88.67,25.65-.7-.29-2.33-1.73-2.48-2.48-.34-1.59-1.24-4.96-1.24-4.96,0,0-.93-.16-2.25-.41-2.97-.58-5.55-2.41-7.01-5.02-.17-.29-.32-.59-.46-.9,0-.01-.01-.01-.01-.02-.03-.07-.05-.12-.08-.18-.26-.61-.52-1.23-.77-1.84-.26-.65-.52-1.31-.75-1.98-.17-.42-.33-.84-.46-1.27-.21-.59-.43-1.2-.61-1.81-.18-.49-.32-.99-.47-1.49-.05-.16-.1-.32-.15-.48-.2-.67-.4-1.34-.57-2-.16-.56-.31-1.13-.45-1.69-.12-.43-.24-.87-.33-1.3-.13-.52-.25-1.03-.36-1.54-.15-.63-.29-1.28-.43-1.9-.24-1.23-.48-2.41-.68-3.56-1.53-8.6-1.69-15-1.69-15-7.07-13.3-11.6-22.42-14.39-29.59-2.66-6.85-3.75-11.93-3.98-17.17-.02-.38-.03-.76-.04-1.13-.02-.77-.02-1.54,0-2.32,.01-.32,.02-.64,.03-.97s.02-.66,.04-.99c.01-.33,.03-.67,.05-1.01s.05-.68,.07-1.03c.07-1.04,.16-2.12,.26-3.23,.04-.37,.07-.75,.11-1.14,.04-.45,.1-.9,.16-1.34,.02-.15,.04-.3,.07-.46,.04-.26,.09-.52,.15-.78,0-.04,.01-.09,.02-.13,.01-.12,.04-.25,.08-.39,.01-.06,.02-.13,.04-.19,.05-.3,.12-.59,.2-.88,.01-.04,.02-.08,.03-.12,.01-.06,.02-.12,.04-.18,.12-.45,.25-.9,.39-1.34,.14-.47,.3-.93,.48-1.4,.13-.35,.27-.71,.43-1.06,.03-.09,.07-.18,.11-.27,.02-.07,.04-.13,.07-.18,.18-.41,.37-.81,.57-1.21,.22-.44,.45-.87,.69-1.3,.25-.45,.52-.89,.81-1.34,.13-.22,.27-.44,.42-.65,.14-.22,.29-.43,.44-.65,.31-.45,.65-.9,1-1.35,.15-.19,.29-.37,.44-.55,.24-.3,.49-.6,.75-.9,1.37-1.57,2.92-3.1,4.66-4.6,7.6-6.51,18.91-12.37,34.35-18.04,19.16-7.04,39.42-6.09,53.38-3.96,10.66,1.64,17.64,3.96,17.64,3.96,27.41,9.31,24.68,49.69,24.68,49.69,3.72,43.43-3.97,42.64-12.41,65.62Z"/>
          <path class="cls-6" d="M98.75,179.23h-11.54s-18.24,11.17-33.13,8.69c-14.89-2.48-30.31-18.75-31.91-24.27-1.6-5.51,3.37-5.51,8.33-8,2.4-1.2,9.63-3.62,17.83-5.23,8.76-1.71,18.61-2.5,24.8,.14,4.9,2.08,9.65,4.35,13.57,6.31,1.23,.63,2.37,1.21,3.41,1.74h.01c3.76,1.95,6.15,3.3,6.15,3.3l2.48,17.32Z"/>
          <path class="cls-15" d="M98.07,133.57c-3.88,4.49-6.22,9.3-7.11,14.58-.12,.69-.21,1.39-.28,2.09-.46,4.73-.72,8.64-.49,12.5-7.78-2.16-39.09-12.63-33.21-39.91,6.7-31.11,24.94-37.09,23.13-55.51-.72-7.29,.99-8.09,3.15-5.64,3.3,3.74,7.67,15.02,6.17,22.39-2.9,14.29-14.57,38.81,8.64,49.5Z"/>
          <path class="cls-6" d="M220.51,154.95l10.89-4.87s22.48,4.11,35.35-4.79c12.87-8.91,19.73-32.6,18.62-39.11s-5.78-4.41-11.64-4.94-33.73,2.15-42.61,12.59c-8.89,10.44-16.46,21.77-16.46,21.77l5.85,19.36Z"/>
          <path class="cls-3" d="M190.46,106.98s-10.2,12.75-10.84,22.06c-.64,9.31-6.85,29.48-9.44,38.8-2.59,9.31-2.27,34.48-3.72,39.74l-32.48,7.85s-5.69-30.79-9.83-38.41-9.31-26.76-11.9-34.01-9.53-14.03-9.53-14.03c7.6-6.51,18.91-12.37,34.35-18.04,19.15-7.04,39.43-6.09,53.39-3.96Z"/>
          <g>
            <path class="cls-3" d="M118.34,189.32c-.21,.67-.52,1.09-.98,1.19-3.85,.82-6.99,.29-9.52-1.09-6.65-3.59-9.1-12.89-9.1-18.3,0-2.83,3.13-8.31,9.39-6.35,.22,.06,.46,.15,.69,.24,.12,.05,.26,.11,.38,.16,6.11,2.61,10.54,19.47,9.12,24.16Z"/>
            <path class="cls-3" d="M194.9,172.32c-1.72,1.63-3.93,3.09-6.68,4.29-1.86,.83-3.97,1.53-6.34,2.1-3.61,.87-4.31-18.96,.46-26.82,.52-.86,1.1-1.58,1.76-2.1,.07-.07,.15-.12,.22-.19,6.87-5,11.22-2.64,13.7,2.32,3.19,6.35,3.18,14.48-3.13,20.39Z"/>
            <path class="cls-4" d="M118.34,189.32c-3.74,.74-6.79,.2-9.26-1.14-2.33-2.07-4.18-5.27-4.99-9.08-1.29-6.07,.48-11.79,4.05-14.33,.22,.06,.46,.15,.69,.24,.12,.05,.26,.11,.38,.16,6.11,2.61,10.54,19.47,9.12,24.16Z"/>
            <path class="cls-4" d="M194.9,172.32c-.97,.46-2,.71-3.08,.71-5.49,0-9.93-6.39-9.93-14.27,0-3.4,.83-6.52,2.21-8.96,.07-.07,.15-.12,.22-.19,6.87-5,11.22-2.64,13.7,2.32,3.19,6.35,3.18,14.48-3.13,20.39Z"/>
            <path class="cls-7" d="M180.71,155.58s3.84-10.53,15.67-6.01c0,0,5.7,.54,3.7-8.09,0,0-1.37,2.83-5.37,2.45-4-.38-14.87,1.92-14,11.65Z"/>
            <path class="cls-7" d="M112.36,167.83s-7.4-5.04-13.61,2.56c0,0-3.72,2.64-6.2-3.57,0,0,2.23,1.22,4.84-.63s11.21-4.8,14.98,1.64Z"/>
            <ellipse class="cls-3" cx="106.82" cy="173.03" rx="3.72" ry="1.86" transform="translate(-79.26 255.03) rotate(-82.09)"/>
            <ellipse class="cls-3" cx="185" cy="156.9" rx="3.72" ry="1.86" transform="translate(4.14 318.55) rotate(-82.09)"/>
          </g>
          <path class="cls-10" d="M120.52,245.78h-3.72c-.17-.29-.32-.59-.46-.9,0-.01-.01-.01-.01-.02-.03-.07-.05-.12-.08-.18-.26-.61-.52-1.23-.77-1.84-.26-.65-.52-1.31-.75-1.98-.17-.42-.33-.84-.46-1.27-.21-.59-.43-1.2-.61-1.81-.18-.49-.32-.99-.47-1.49-.05-.16-.1-.32-.15-.48-.2-.67-.4-1.34-.57-2-.16-.56-.31-1.13-.45-1.69-.12-.43-.24-.87-.33-1.3-.13-.52-.25-1.03-.36-1.54-.15-.63-.29-1.28-.43-1.9-.24-1.23-.48-2.41-.68-3.56-1.53-8.6-1.69-15-1.69-15-7.07-13.3-11.6-22.42-14.39-29.59h-6.93s-18.24,11.17-33.13,8.69c-14.89-2.48-30.31-18.75-31.91-24.27-1.6-5.51,3.37-5.51,8.33-8,2.4-1.2,9.63-3.62,17.83-5.23-1.65,2.86,6.19,2.87,11.98,3.71,5.89,.85,24.89,10.63,24.89,10.63-.1-1.66,.17-2.76,.48-3.45,1.86,.66,3.42,1.13,4.51,1.43-.01-.23-.02-.45-.03-.68-.02-.38-.03-.76-.04-1.13-.02-.76-.02-1.53-.01-2.32h.01c.01-.32,.02-.64,.03-.97s.02-.66,.04-.99c.01-.33,.03-.67,.05-1.01s.05-.68,.07-1.03c.07-1.04,.16-2.12,.26-3.23,.04-.37,.07-.75,.11-1.14,.04-.45,.1-.9,.16-1.34,.02-.15,.04-.3,.07-.46,.04-.26,.09-.52,.15-.78,0-.04,.01-.09,.02-.13,.01-.12,.04-.25,.08-.39,.01-.06,.02-.13,.04-.19,.05-.3,.12-.59,.2-.88,.01-.04,.02-.08,.03-.12,.01-.06,.02-.12,.04-.18,.12-.45,.25-.9,.39-1.34,.14-.47,.3-.93,.48-1.4,.13-.35,.27-.71,.43-1.06,.03-.09,.07-.18,.11-.27,.02-.07,.04-.13,.07-.18,.18-.41,.37-.81,.57-1.21,.22-.44,.45-.87,.69-1.3,.25-.45,.52-.89,.81-1.34,.13-.22,.27-.44,.42-.65,.14-.22,.29-.43,.44-.65,.31-.45,.65-.9,1-1.35,.15-.19,.29-.37,.44-.55,.24-.3,.49-.6,.75-.9,1.37-1.57,2.92-3.1,4.66-4.6-7.19,11.19,1.19,28.81,1.19,28.81,0,0-8,5-5.85,6.11,2.15,1.1,7.85-4.11,14.29,1.39s8.56,22.5,7.47,25.62c-1.09,3.12-3.91,1.88-7.91,1.88s-.77,3.9-.77,3.9c1.23,3.9,1.77,11.1,1.77,11.1,.77,6.89,2.7,13.2,3.57,15.77,.27,.79,.43,1.23,.43,1.23l-1,11,4.6,10Z"/>
          <path class="cls-11" d="M75.42,178.51c-4.55,2.88-11.39,5.68-20.1,6.93-6.14,.87-24.82-12.41-24.82-18.62,0-.71,.24-1.41,.67-2.07,3.36-5.08,18.36-8.45,26.32-7.59,9,.98,23.51,11.04,24.32,14.07,.4,1.52-1.86,4.44-6.39,7.28Z"/>
          <path class="cls-10" d="M75.42,178.51c-.07-1.8-.68-6.25-4.79-7.56-5.08-1.63-30.68,4.23-39.46-6.2,3.36-5.08,18.36-8.45,26.32-7.59,9,.98,23.51,11.04,24.32,14.07,.4,1.52-1.86,4.44-6.39,7.28Z"/>
          <path class="cls-10" d="M90.68,150.24c-.46,4.73-.72,8.64-.49,12.5-7.78-2.16-39.09-12.63-33.21-39.91,6.7-31.11,24.94-37.09,23.13-55.51-.72-7.29,.99-8.09,3.15-5.64-1.82,3.36,.75,9.73,1.66,16.1,1,7-3,16-6,22s-5,16-4.28,29.19c.58,10.72,12.04,17.14,16.32,19.18-.12,.69-.21,1.39-.28,2.09Z"/>
          <path class="cls-16" d="M232.67,223.39c-6.75,12.39-16.75,27.39-15.75,43.39s-17,20.22-23,15.11-5.32-17.62-13.65-24.36h0c15.33-4.45,29.93-12.41,38.19-24.53,.48-2.38,1.14-4.62,1.92-6.76,1.44-3.91,2.85-7.14,4.2-10.01,2.66,.55,6.34,1.37,10.34,2.45-.61,1.51-1.35,3.08-2.24,4.71Z"/>
          <g>
            <path class="cls-11" d="M220.37,226.24c-.78,2.14-.56,4.75-1.92,6.76-8.26,12.12-22.86,20.08-38.19,24.52-19.45,5.63-40.09,5.58-50.48,1.13-.7-.29-2.33-1.73-2.48-2.48-.34-1.59-1.24-4.96-1.24-4.96,0,0-.93-.16-2.25-.41-3.3-.65-6.12-2.84-7.47-5.92,0-.01-.01-.01-.01-.02-.03-.07-.05-.12-.08-.18-.26-.61-.52-1.21-.77-1.84-.18-.45-4.03-10.48,.65-18.93,6.2-6.21,9.93-8.69,17.37-11.17,10.06-3.35,33.26-6.21,43.44-6.21,19.85,0,16.13,8.69,21.09,11.17,1.64-3.28,9.77-7.1,15.82-3.63,3.11,1.77,5.68,5.48,6.52,12.17Z"/>
            <path class="cls-4" d="M129.39,228.07c2.93,3.66,2.98,9.39,0,10.16-2.98,.77-7.46-1.22-7.46-4.2s-3.48-6.46-1.49-8.95,6.96,.5,8.95,2.98Z"/>
            <path class="cls-4" d="M173.62,220.56c-1.08,5.15,4.35,9.74,7.77,8.8s8.02-5.63,5.58-7.81c-5.02-4.46-.3-3.68-5.92-8.91-3-2.8-6.35,2.78-7.43,7.92Z"/>
            <path class="cls-7" d="M212.92,223.02c-1.24,.89-4.96,10.82-8.69,14.54s-13.96,9.58-38,14.72c-20.45,4.37-37.7,1.41-40.18-1.07,8.69,1.24,26.68,.06,39.45-2.94,13.91-3.26,32.23-7.79,36.1-13.59,3.87-5.81,7.59-12.01,7.59-13.25s-3.72-2.48-2.48-3.72,4.96,0,6.2,1.24,1.24,3.19,0,4.07Z"/>
          </g>
          <path class="cls-10" d="M234.91,218.68c-4-1.08-7.68-1.9-10.34-2.45-1.35,2.87-2.76,6.1-4.2,10.01-.78,2.14-1.44,4.38-1.92,6.76-8.26,12.12-22.86,20.08-38.19,24.52-19.45,5.63-40.09,5.58-50.48,1.13-.7-.29-2.33-1.73-2.48-2.48-.34-1.59-1.24-4.96-1.24-4.96,0,0-.93-.16-2.25-.41-3.3-.65-6.12-2.84-7.47-5.92,0-.01-.01-.01-.01-.02-.03-.07-.05-.12-.08-.18-.26-.61-.52-1.21-.77-1.84-.18-.45-4.03-10.48,.65-18.93,6.2-6.21,9.93-8.69,17.37-11.17,0,0-4.72,8.18-5.16,14.23-.06,.82-.04,1.6,.08,2.31,.33,1.95,.83,4.69,2.96,6.77,4.36,4.3,15.54,5.88,46-7.55,.52-.23,1.05-.47,1.59-.71l6.9-3.64s.23,.61,.68,1.58c1.5,3.2,5.5,10.31,11.97,11.77,.76,.18,1.56,.28,2.4,.28l10-13,2.14-4.09s.26-.2,.53-.77c.41-.88,.83-2.63,.26-5.85,0,0,1.37-4.37,4.72-1.33,3.35,3.04,14.95-8.27,15.15-35.12l2.2,1.16s0,11,1,17c.87,5.21,2.12,12.86-2.01,22.9Z"/>
          <path class="cls-10" d="M347.76,215.42s-10.83,7.8-26.09,4.33-23.33-12.03-31.04,0c-7.72,12.03-41.54-2.47-45.13-13.22s-7.07-34.25-16.09-44.25c-26.48-29.35-18.16-11.03-19-6-2,12-9.67,18.42-18.59,22.46s-10.8,3.96-12.86,0-7.05-34.96,12.95-35.96,1.26-6.13-2.37-6.07-1.44-3.89,1.46-3.91,8.19-4.11,5.05-10.57-9.62-9.57-9.62-9.57l3.48-7.89,14,2,35.65-1.37,36.35-6.63,9.57,2.39,2.53,8.06-4.11,16.56-9,16-13.33,9.02-10.67,1.98-17.18-.02,4.06,11.59,5.49,12.86,10.63,11.57,14,8,16,4,16-1,20-3,17.63,.59,12.37,.41-2.15,17.64Z"/>
          <path class="cls-11" d="M279.42,117.22c-.95,8.86-9.79,24.56-15.01,25.96-10.18,2.73-18.99,2.2-24.72,.57-4.16-1.17-6.7-2.91-6.98-4.4-.67-3.55,8.26-20.32,16.29-25.14,8.03-4.82,27.09-7.73,30.02-1.17,.47,1.05,.57,2.49,.4,4.18Z"/>
          <path class="cls-15" d="M221.75,128c-5.48,.17-10.04-1.52-13.7-3.88-7.61-4.89-11.33-12.67-11.33-12.67,21.73-24.31-4.14-40.35-15-51.73-7.66-8.02-9.06-30.06-3.44-23.1,.7,.86,1.49,2.15,2.4,3.96,8.28,16.55,26.9,11.9,49.15,34.66,22.24,22.76-8.08,52.76-8.08,52.76Z"/>
          <path class="cls-10" d="M208.05,124.12c-7.61-4.89-11.33-12.67-11.33-12.67,21.73-24.31-4.14-40.35-15-51.73-7.66-8.02-9.06-30.06-3.44-23.1-5.18,17.21,15.57,27.99,32.14,40.66,15.16,11.59,.89,40.69-2.37,46.84Z"/>
          <path class="cls-10" d="M279.42,117.22c-8.27-.14-23.25,9.42-29.34,18.06-3.88,5.5-7.74,7.64-10.39,8.47-4.16-1.17-6.7-2.91-6.98-4.4-.67-3.55,8.26-20.32,16.29-25.14,8.03-4.82,27.09-7.73,30.02-1.17,.47,1.05,.57,2.49,.4,4.18Z"/>
        </g>
        <text class="cls-14" transform="translate(407.3 252.15)"><tspan x="0" y="0">K</tspan><tspan class="cls-5" x="87.43" y="0">r</tspan><tspan x="144.41" y="0">agebje</tspan><tspan class="cls-12" x="603.05" y="0">r</tspan><tspan x="660.03" y="0">ggå</tspan><tspan class="cls-12" x="919.71" y="0">r</tspan><tspan class="cls-13" x="976.69" y="0">d</tspan></text>
      </g>
    </g>
  </g>
</svg>